<svg xmlns="http://www.w3.org/2000/svg" enable-background="new 0 0 52 52" viewBox="0 0 52 52" id="BookmarkServices"><path d="M32.77 4.53995H6.01c-1.9 0-3.55 1.3401-3.92 3.1901C2.03 8.00005 2 8.26995 2 8.53995v4.6301h30.77V4.53995zM8.01909 10.85245h-.229c-.5523 0-1-.4472-1-1 0-.5527.4477-1 1-1h.229c.5522 0 1 .4473 1 1C9.01909 10.40525 8.57129 10.85245 8.01909 10.85245zM11.41509 10.85245h-.2295c-.5523 0-1-.4472-1-1 0-.5527.4477-1 1-1h.2295c.5522 0 1 .4473 1 1C12.41509 10.40525 11.96729 10.85245 11.41509 10.85245zM14.81059 10.85245h-.229c-.5523 0-1-.4472-1-1 0-.5527.4477-1 1-1h.229c.5522 0 1 .4473 1 1C15.81059 10.40525 15.36279 10.85245 14.81059 10.85245zM46 4.53995h-.02v8.6301H50v-4.6301C50 6.33005 48.2 4.53995 46 4.53995z" fill="#5e6fec" class="color000000 svgShape"></path><polygon points="43.37 46.84 49.49 39.37 43.37 39.37" fill="#5e6fec" class="color000000 svgShape"></polygon><path d="M45.98,21.89005c0,1.35-0.91,2.53-2.21,2.8899c-0.19,0.0601-0.48,0.1101-0.79,0.1101c-1.07,0-2.06-0.57-2.59-1.49
		l-1.02-1.7l-1.02,1.72c-0.53,0.91-1.52,1.47-2.57,1.47c-0.29,0-0.57-0.04-0.85-0.1201c-1.26-0.3499-2.16-1.5399-2.16-2.8799v-6.72
		H2v28.29c0,2.2,1.8,4,4,4h35.37v-9.09c0-0.55,0.45-1,1-1H50v-22.2h-4.02V21.89005z M5.85259,18.19525c0-0.5527,0.4477-1,1-1
		h15.8188c0.5523,0,1,0.4473,1,1v12.5947c0,0.5528-0.4477,1-1,1H6.85259c-0.5523,0-1-0.4472-1-1V18.19525z M37.76909,42.02825
		H6.85259c-0.5523,0-1-0.4473-1-1s0.4477-1,1-1h30.9165c0.5522,0,1,0.4473,1,1S38.32129,42.02825,37.76909,42.02825z
		 M37.76909,36.91985H6.85259c-0.5523,0-1-0.4473-1-1s0.4477-1,1-1h30.9165c0.5522,0,1,0.4473,1,1
		S38.32129,36.91985,37.76909,36.91985z M37.76909,31.78995h-12.4165c-0.5523,0-1-0.4472-1-1c0-0.5527,0.4477-1,1-1h12.4165
		c0.5522,0,1,0.4473,1,1C38.76909,31.34275,38.32129,31.78995,37.76909,31.78995z" fill="#5e6fec" class="color000000 svgShape"></path><path d="M35.5,22.85005c0.44,0.13,0.9-0.0601,1.13-0.45l2.74-4.6001l2.75,4.6001c0.18,0.31,0.51,0.49,0.86,0.49
		c0.09,0,0.17-0.01,0.26-0.04c0.44-0.12,0.74-0.51,0.74-0.96V4.53995h-9.21v17.3501C34.77,22.34005,35.07,22.73005,35.5,22.85005z" fill="#5e6fec" class="color000000 svgShape"></path></svg>