<svg width="160" height="159" viewBox="0 0 160 159" fill="none" xmlns="http://www.w3.org/2000/svg">
<path d="M74.3984 17.8555C74.3984 13.6292 70.9632 10.1624 66.7592 10.5963C54.7446 11.8365 43.1714 15.9885 33.0649 22.7415C20.8301 30.9165 11.2943 42.536 5.66324 56.1305C0.0322027 69.725 -1.44113 84.6841 1.42954 99.1159C4.30022 113.548 11.386 126.804 21.7908 137.209C32.1956 147.614 45.4521 154.7 59.884 157.57C74.3159 160.441 89.2749 158.968 102.869 153.337C116.464 147.706 128.083 138.17 136.258 125.935C143.011 115.829 147.163 104.255 148.404 92.2407C148.838 88.0367 145.371 84.6015 141.144 84.6015H87.0484C80.062 84.6015 74.3984 78.9379 74.3984 71.9515V17.8555Z" fill="#F37D73"/>
<path d="M152.198 74.3984C156.424 74.3984 159.891 70.9634 159.457 66.7594C158.719 59.6103 156.948 52.5922 154.187 45.9274C150.448 36.9009 144.968 28.6993 138.059 21.7908C131.151 14.8823 122.949 9.40211 113.923 5.66324C107.258 2.90258 100.24 1.13116 93.0909 0.393208C88.8869 -0.040738 85.4519 3.4261 85.4519 7.65241L85.4519 66.746C85.4519 70.9723 88.878 74.3984 93.1043 74.3984H152.198Z" fill="#EFC0BC"/>
</svg>
